<svg width="18" height="18" viewBox="0 0 18 18" fill="none" xmlns="http://www.w3.org/2000/svg">
<g clip-path="url(#clip0_8_6)">
<path d="M6.71526 16.3844C5.93687 16.3844 5.1357 16.3214 4.32971 16.195C2.91014 15.9723 1.47313 15.2298 1.0665 15.0074L0 14.4243L1.15466 14.0446C2.41686 13.6296 3.18466 13.3721 4.13512 12.9689C3.18343 12.508 2.44995 11.679 2.09688 10.6073L1.82826 9.7918L2.04854 9.82545C1.83966 9.61492 1.67473 9.40124 1.54688 9.20692C1.09218 8.51629 0.851441 7.6724 0.902664 6.94923L0.953201 6.23745L1.37933 6.40252C1.19957 6.06304 1.06966 5.7005 0.993302 5.32051C0.807221 4.39381 0.962952 3.4093 1.43193 2.54838L1.80313 1.86695L2.29958 2.46324C3.86966 4.34931 5.85832 5.46813 8.2186 5.79566C8.12219 5.13113 8.19443 4.4898 8.43352 3.91494C8.71188 3.2456 9.20709 2.67802 9.86517 2.27345C10.596 1.82424 11.4824 1.60658 12.3609 1.66055C13.2929 1.71781 14.1391 2.06704 14.8112 2.67115C15.1394 2.58587 15.3813 2.49482 15.7081 2.37178C15.9048 2.29775 16.1278 2.21371 16.4068 2.11758L17.4352 1.76327L16.7646 3.67846C16.8088 3.67475 16.8544 3.6716 16.9021 3.66954L18.0001 3.61982L17.3511 4.50683C17.3139 4.55764 17.3044 4.57206 17.2912 4.59197C17.2389 4.6708 17.1738 4.76885 16.283 5.9584C16.06 6.25627 15.9486 6.64422 15.9693 7.05099C16.0483 8.59677 15.8586 9.99533 15.4053 11.2077C14.9766 12.3546 14.3122 13.3387 13.4308 14.1326C12.3401 15.1148 10.9494 15.7873 9.29704 16.1312C8.48653 16.2998 7.61614 16.3844 6.71526 16.3844Z" fill="white"/>
</g>
<defs>
<clipPath id="clip0_8_6">
<rect width="18.0001" height="18" fill="white"/>
</clipPath>
</defs>
</svg>
